HIERARCHY
ROOT hip
{
	OFFSET 0.000000 0.000000 0.000000 
	CHANNELS 6 Xposition Yposition Zposition Xrotation Zrotation Yrotation
	JOINT abdomen
	{
		OFFSET 0.000000 3.402643 0.000000 
		CHANNELS 3 Xrotation Zrotation Yrotation
		JOINT chest
		{
			OFFSET 0.000000 8.438565 -0.680529 
			CHANNELS 3 Xrotation Zrotation Yrotation
			JOINT neck
			{
				OFFSET 0.000000 10.207942 -0.272212 
				CHANNELS 3 Xrotation Zrotation Yrotation
				JOINT head
				{
					OFFSET 0.000000 3.130431 0.000000 
					CHANNELS 3 Xrotation Zrotation Yrotation
					End Site
					{
						OFFSET 0.000000 3.130435 0.000000 
					}
				}
			}
			JOINT lCollar
			{
				OFFSET 3.470700 6.669187 -0.816635 
				CHANNELS 3 Yrotation Zrotation Xrotation
				JOINT lShldr
				{
					OFFSET 3.198488 0.000000 0.000000 
					CHANNELS 3 Zrotation Yrotation Xrotation
					JOINT lForeArm
					{
						OFFSET 10.139888 0.000000 0.000000 
						CHANNELS 3 Yrotation Zrotation Xrotation
						JOINT lHand
						{
							OFFSET 8.370511 0.000000 0.000000 
							CHANNELS 3 Zrotation Yrotation Xrotation
							End Site
							{
								OFFSET 4.083176 0.000000 0.000000 
							}
						}
					}
				}
			}
			JOINT rCollar
			{
				OFFSET -3.470700 6.669187 -0.816635 
				CHANNELS 3 Yrotation Zrotation Xrotation
				JOINT rShldr
				{
					OFFSET -3.198488 0.000000 0.000000 
					CHANNELS 3 Zrotation Yrotation Xrotation
					JOINT rForeArm
					{
						OFFSET -10.139888 0.000000 0.000000 
						CHANNELS 3 Yrotation Zrotation Xrotation
						JOINT rHand
						{
							OFFSET -8.370511 0.000000 0.000000 
							CHANNELS 3 Zrotation Yrotation Xrotation
							End Site
							{
								OFFSET -4.083176 0.000000 0.000000 
							}
						}
					}
				}
			}
		}
	}
	JOINT lThigh
	{
		OFFSET 5.308129 -1.633274 1.361059 
		CHANNELS 3 Xrotation Zrotation Yrotation
		JOINT lShin
		{
			OFFSET -2.041588 -20.007561 0.000000 
			CHANNELS 3 Xrotation Zrotation Yrotation
			JOINT lFoot
			{
				OFFSET 0.000000 -19.190928 -1.224953 
				CHANNELS 3 Xrotation Yrotation Zrotation
				End Site
				{
					OFFSET 0.000000 -2.449906 4.627600 
				}
			}
		}
	}
	JOINT rThigh
	{
		OFFSET -5.308129 -1.633274 1.361059 
		CHANNELS 3 Xrotation Zrotation Yrotation
		JOINT rShin
		{
			OFFSET 2.041588 -20.007561 0.000000 
			CHANNELS 3 Xrotation Zrotation Yrotation
			JOINT rFoot
			{
				OFFSET 0.000000 -19.190928 -1.224953 
				CHANNELS 3 Xrotation Yrotation Zrotation
				End Site
				{
					OFFSET 0.000000 -2.449906 4.627600 
				}
			}
		}
	}
}
MOTION
Frames: 15
Frame Time: 0.050000
3.176997 42.682686 -1.524539 1.614260 1.650030 -1.630150 -3.339600 -2.861610 -2.539510 2.626950 -1.494140 -1.972910 -0.028617 0.811878 -0.155635 -2.958560 0.903542 -0.252972 -4.141850 -6.798530 -1.187090 -70.635696 11.767800 17.174700 -6.628180 -7.984410 2.382730 11.154500 -5.276600 -15.153600 -0.946592 5.303320 10.067400 70.603996 12.506600 -1.426650 18.577200 11.048400 19.928600 -2.384540 1.635580 0.037211 -7.099664 0.207328 -13.151159 10.900676 -3.891826 -0.733064 -6.697595 20.419619 0.579769 -11.225286 -3.954279 9.889556 9.331776 -0.655612 -0.097646 3.001083 -11.262405 5.141002 
2.869243 42.590698 -2.045583 1.614260 1.650030 6.442966 -3.298289 -2.804018 -7.500293 2.689321 -1.429469 -5.148156 -0.028617 0.811878 -0.155635 -2.960588 0.903542 -0.252972 -4.090993 -6.963037 -1.214921 -68.824524 10.815744 14.398654 -6.103666 -8.342047 2.726456 9.671653 -5.321551 -15.031362 -0.942937 5.307707 10.080431 70.845886 12.771613 -1.424605 18.556927 11.011158 19.733154 -2.178149 1.739550 0.643681 -9.224708 -0.964457 -13.006454 20.297249 -4.825963 1.731277 -3.778767 14.253988 1.232091 -11.511687 -4.190417 2.666800 11.371297 -1.095791 -0.067420 1.818539 -12.201246 4.492842 
2.496090 42.487400 -2.688367 1.614260 1.650030 16.286846 -3.247096 -2.719903 -13.602950 2.777198 -1.341141 -9.019460 -0.028617 0.811878 -0.155635 -2.963665 0.903542 -0.252972 -4.070504 -7.218976 -1.258656 -66.578590 9.535369 10.903362 -5.373058 -8.751531 3.405751 7.808201 -5.378040 -14.877748 -0.937393 5.314362 10.100199 71.212845 13.173648 -1.421501 18.526171 10.954661 19.436659 -1.865047 1.897275 1.563717 -10.234847 -1.168290 -12.882359 29.225105 -5.701196 5.038107 -0.045874 6.855325 5.363252 -11.728988 -5.293926 -6.249908 13.740447 -1.526144 -0.033946 0.380493 -13.109835 4.164824 
2.117613 42.351254 -3.298360 1.614260 1.650030 26.060932 -3.199372 -2.689000 -19.458647 2.819659 -1.289319 -12.864842 -0.028617 0.811878 -0.155635 -2.964433 0.903542 -0.252972 -4.072701 -7.525143 -1.311172 -64.152367 8.095190 7.097262 -4.537977 -9.174460 4.284181 5.781067 -5.439492 -14.710643 -0.936010 5.316023 10.105131 71.304413 13.273979 -1.420727 18.518494 10.940561 19.362665 -1.786909 1.936637 1.793322 -10.496444 -0.203128 -12.915719 36.218567 -6.374770 8.407651 3.638704 0.622882 12.245750 -12.169297 -6.297612 -14.811313 16.468277 -2.138042 -0.004129 -1.230774 -14.391954 3.741087 
1.773130 42.139709 -3.736361 1.614260 1.650030 34.369850 -3.167666 -2.812855 -23.855398 2.727952 -1.347635 -16.138151 -0.028617 0.811878 -0.155635 -2.958560 0.903542 -0.252972 -4.063788 -7.824627 -1.362460 -61.671215 6.648561 3.218865 -3.705008 -9.615874 5.116173 3.714509 -5.502139 -14.540286 -0.946592 5.303320 10.067400 70.603996 12.506600 -1.426650 18.577200 11.048400 19.928600 -2.384540 1.635580 0.037211 -11.249246 1.181634 -12.819604 42.574471 -6.963868 10.768724 5.597031 -2.894259 19.106735 -12.729815 -7.689116 -21.399536 19.838678 -2.792291 -0.010905 -3.142173 -16.070864 3.943033 
1.492673 41.820824 -3.904139 1.614260 1.650030 40.151405 -3.159980 -3.161480 -25.921322 2.445441 -1.561737 -18.422714 -0.028617 0.811878 -0.155635 -2.944473 0.903542 -0.252972 -4.009975 -8.060520 -1.402510 -59.260517 5.348839 -0.493315 -2.980738 -10.080813 5.656156 1.732789 -5.562212 -14.376923 -0.973972 5.271287 9.969411 68.781532 10.514803 -1.442229 18.727551 11.331805 21.279310 -3.933807 0.855175 -4.520575 -12.745780 1.751329 -12.575158 48.054829 -7.348088 11.394645 5.775455 -2.755080 22.775875 -14.069253 -8.578433 -24.672041 24.080795 -3.635864 -0.076685 -5.384512 -18.598724 4.245716 
1.269119 41.405121 -3.867340 1.614260 1.650030 43.676121 -3.166135 -3.678779 -26.144987 2.043930 -1.865329 -19.819813 -0.028617 0.811878 -0.155635 -2.931632 0.903542 -0.252972 -3.877469 -8.175910 -1.421314 -57.045654 4.349382 -3.800764 -2.471750 -10.574317 5.658555 -0.039836 -5.615947 -14.230796 -1.011091 5.232581 9.834522 66.253082 7.779068 -1.464773 18.922668 11.740764 22.469305 -6.050824 -0.211000 -10.778722 -14.275347 1.322301 -12.311355 52.064018 -7.526155 10.781695 4.700050 0.269615 22.645002 -15.655746 -9.328614 -25.448647 28.934416 -4.509160 -0.215331 -7.953623 -21.314917 4.976952 
1.086059 40.913731 -3.732585 1.614260 1.650030 45.547699 -3.171410 -4.277125 -25.355076 1.627340 -2.164129 -20.560217 -0.028617 0.811878 -0.155635 -2.932255 0.903542 -0.252972 -3.632477 -8.113890 -1.408860 -55.152008 3.803548 -6.464967 -2.284632 -11.101426 4.877799 -1.479102 -5.659575 -14.112150 -1.047916 5.204261 9.696333 63.621262 4.989178 -1.490183 19.097652 12.199352 22.280512 -8.186767 -1.286237 -17.156582 -15.854669 0.165881 -12.059726 55.411903 -7.543930 9.491674 2.263413 5.214833 19.457256 -18.118637 -9.475800 -24.816750 34.046841 -5.475213 -0.433388 -10.411315 -23.911438 5.328858 
0.927082 40.367794 -3.606492 1.614260 1.650030 46.369850 -3.161083 -4.868891 -24.380264 1.299588 -2.363854 -20.874691 -0.028617 0.811878 -0.155635 -2.958560 0.903542 -0.252972 -3.241205 -7.817548 -1.355141 -53.704960 3.864695 -8.247413 -2.525970 -11.667184 3.068313 -2.460751 -5.689333 -14.031227 -1.074415 5.203387 9.588438 61.488682 2.834913 -1.514356 19.187607 12.631647 19.494848 -9.792812 -2.093830 -22.073519 -17.082636 -0.750203 -11.945969 57.808228 -7.518277 8.255416 -1.406137 10.798791 14.154380 -20.388607 -9.675570 -24.190582 39.105461 -6.385777 -0.707458 -12.993114 -25.485849 5.762480 
0.778352 39.783779 -3.569057 1.614260 1.650030 46.670197 -3.128457 -5.373334 -23.880175 1.136860 -2.396916 -20.966555 -0.028617 0.811878 -0.155635 -3.013291 0.903542 -0.252972 -2.694643 -7.261037 -1.256071 -52.772842 4.602577 -9.005049 -3.249305 -12.267117 0.121160 -2.909500 -5.702937 -13.994233 -1.084263 5.239684 9.535348 60.278893 1.818868 -1.535337 19.146015 12.976947 13.368474 -10.467490 -2.431424 -24.365068 -17.950384 -1.130262 -12.008084 59.914303 -7.488259 7.490900 -6.806488 16.393930 7.941690 -22.787367 -9.964561 -23.937078 43.874081 -7.245575 -1.065986 -15.278848 -26.123762 5.998088 
0.636335 39.159496 -3.593784 1.614260 1.650030 46.672112 -3.098941 -5.737252 -23.838196 1.104408 -2.302498 -20.929327 -0.028617 0.811878 -0.155635 -3.061290 0.903542 -0.252972 -2.082901 -6.542749 -1.131274 -52.195801 5.752533 -8.976694 -4.296016 -12.858721 -3.526066 -2.945999 -5.704043 -13.991225 -1.085960 5.293525 9.525215 59.699120 1.694892 -1.559749 18.999914 13.235435 5.054464 -10.398750 -2.394084 -24.531525 -18.550430 -0.729582 -12.202610 61.885872 -7.481603 7.154451 -13.384395 21.137312 1.500454 -25.182413 -10.250883 -23.683268 48.376640 -8.027059 -1.507089 -17.345757 -26.420902 6.172657 
0.500069 38.488087 -3.627552 1.614260 1.650030 46.522888 -3.105970 -5.914320 -24.068663 1.139752 -2.146474 -20.829067 -0.028617 0.811878 -0.155635 -3.057924 0.903542 -0.252972 -1.520869 -5.792136 -1.006293 -51.756924 6.966302 -8.496626 -5.454435 -13.389979 -7.299136 -2.739873 -5.697794 -14.008217 -1.091709 5.337943 9.537100 59.277512 2.029643 -1.596358 18.794727 13.422512 -3.819880 -9.921894 -2.151225 -23.489359 -18.974794 0.168965 -12.461739 63.755001 -7.506872 7.041059 -20.230591 24.744139 -4.719597 -27.575773 -10.544646 -23.434561 52.749237 -8.739794 -2.008536 -19.317299 -26.533346 6.312657 
0.368594 37.762699 -3.617243 1.614260 1.650030 46.369850 -3.182978 -5.858218 -24.385910 1.180410 -1.994722 -20.731850 -0.028617 0.811878 -0.155635 -2.958560 0.903542 -0.252972 -1.123437 -5.138650 -0.906678 -51.239323 7.895621 -7.899127 -6.512898 -13.808882 -10.623817 -2.460751 -5.689333 -14.031227 -1.113717 5.345973 9.550065 58.542229 2.389781 -1.653931 18.575893 13.553576 -11.627241 -9.372228 -1.872262 -22.155045 -19.370941 1.231015 -12.749035 65.585472 -7.529267 6.958416 -26.514158 26.958773 -10.244370 -29.969334 -10.829218 -23.174549 57.116875 -9.404009 -2.548873 -21.272638 -26.660229 6.428636 
0.241404 36.983368 -3.522950 1.614260 1.650030 46.325630 -3.350949 -5.545719 -24.636208 1.178419 -1.899160 -20.688555 -0.028617 0.811878 -0.155635 -2.700999 0.903542 -0.252972 -0.978755 -4.684086 -0.852401 -50.472160 8.268060 -7.457203 -7.301219 -14.076390 -13.052630 -2.247527 -5.682870 -14.048806 -1.158069 5.297142 9.547488 57.140999 2.436834 -1.738112 18.386507 13.641196 -17.104107 -9.021892 -1.694666 -21.276869 -19.874006 2.061577 -13.009685 67.400246 -7.567855 6.743617 -32.003700 27.602308 -14.391859 -32.326145 -11.068181 -23.055216 61.579662 -10.018452 -3.152195 -23.392292 -26.823475 6.448723 
0.119823 36.177719 -3.357636 1.614260 1.650030 46.364212 -3.581054 -5.045983 -24.793577 1.143879 -1.855888 -20.689362 -0.028617 0.811878 -0.155635 -2.152776 0.903542 -0.252972 -1.068003 -4.419594 -0.841152 -49.468822 8.114516 -7.198766 -7.815135 -14.205373 -14.645065 -2.116169 -5.678888 -14.059635 -1.206367 5.196942 9.530013 55.199944 2.211803 -1.842056 18.260359 13.686606 -20.442091 -8.890386 -1.628125 -20.930399 -20.371725 3.057554 -13.250389 68.983131 -7.633110 6.452920 -36.819214 26.972012 -17.376127 -34.471615 -11.158254 -22.972054 65.996674 -10.583129 -3.780148 -25.742193 -27.182606 6.380869 
